<?xml version="1.0" standalone="no"?>
<!DOCTYPE svg PUBLIC "-//W3C//DTD SVG 20010904//EN"
 "http://www.w3.org/TR/2001/REC-SVG-20010904/DTD/svg10.dtd">
<svg version="1.0" xmlns="http://www.w3.org/2000/svg"
 width="225.000000pt" height="225.000000pt" viewBox="0 0 225.000000 225.000000"
 preserveAspectRatio="xMidYMid meet">
<metadata>
Created by potrace 1.14, written by Peter Selinger 2001-2017
</metadata>
<g transform="translate(0.000000,225.000000) scale(0.100000,-0.100000)"
fill="#000000" stroke="none">
<path d="M1044 1585 c-371 -185 -690 -339 -696 -337 -5 1 -8 -2 -8 -6 0 -5 89
-52 198 -104 108 -53 300 -147 426 -209 l228 -112 62 31 c96 49 560 276 566
276 3 1 33 16 68 34 62 32 62 32 63 10 1 -13 1 -87 2 -165 l1 -143 46 0 46 0
0 189 1 188 -211 103 c-479 235 -563 276 -606 295 l-45 20 -141 -70z m409
-143 c111 -55 251 -123 311 -153 l108 -53 -79 -39 -80 -38 -309 151 -309 152
75 38 c41 22 76 39 78 40 2 0 94 -44 205 -98z m-98 -206 l260 -127 -75 -36
c-41 -19 -79 -35 -85 -36 -13 0 -515 245 -515 252 0 7 143 79 150 76 3 -2 122
-60 265 -129z m-210 -150 l210 -103 -78 -38 -79 -37 -71 33 c-150 69 -347 169
-347 176 1 8 127 71 145 72 6 0 105 -46 220 -103z"/>
<path d="M648 1027 c-1 -1 -2 -64 -3 -139 l-2 -138 86 -41 c47 -23 171 -84
276 -135 l189 -93 41 21 c22 11 48 25 58 30 10 5 35 18 55 28 20 10 117 57
215 104 l177 85 0 141 c0 78 -3 139 -7 137 -9 -5 -258 -125 -288 -138 -11 -5
-27 -13 -35 -19 -8 -5 -61 -32 -118 -59 l-103 -48 -117 57 c-64 32 -186 92
-269 134 -84 41 -154 74 -155 73z"/>
</g>
</svg>
